# Blender 3.6.2
# www.blender.org
mtllib scene.mtl
o Plane
v -10.000000 0.000000 10.000000
v 10.000000 0.000000 10.000000
v -10.000000 0.000000 -10.000000
v 10.000000 0.000000 -10.000000
vn -0.0000 1.0000 -0.0000
vt 1.000000 0.000000
vt 0.000000 1.000000
vt 0.000000 0.000000
vt 1.000000 1.000000
s 0
usemtl Material.001
f 2/1/1 3/2/1 1/3/1
f 2/1/1 4/4/1 3/2/1
o Plane.001
v -10.000000 0.000000 -10.000000
v 10.000000 0.000000 -10.000000
v -10.000000 12.000000 -10.000000
v 10.000000 12.000000 -10.000000
vn -0.0000 -0.0000 1.0000
vt 1.000000 0.000000
vt 0.000000 1.000000
vt 0.000000 0.000000
vt 1.000000 1.000000
s 0
usemtl Material.001
f 6/5/2 7/6/2 5/7/2
f 6/5/2 8/8/2 7/6/2
