# Blender 3.6.2
# www.blender.org
mtllib untitled.mtl
o Plane
v -10.000000 0.000001 15.046511
v 10.000000 0.000001 15.046511
v -10.000000 -0.000001 -4.953489
v 10.000000 -0.000001 -4.953489
vn -0.0000 1.0000 -0.0000
vt 1.000000 0.000000
vt 0.000000 1.000000
vt 0.000000 0.000000
vt 1.000000 1.000000
s 0
usemtl Material.001
f 2/1/1 3/2/1 1/3/1
f 2/1/1 4/4/1 3/2/1
o Plane.001
v -10.000000 -0.000001 -4.953489
v 10.000000 -0.000001 -4.953489
v -10.000000 11.999999 -4.953490
v 10.000000 11.999999 -4.953490
vn -0.0000 -0.0000 1.0000
vt 1.000000 0.000000
vt 0.000000 1.000000
vt 0.000000 0.000000
vt 1.000000 1.000000
s 0
usemtl Material.001
f 6/5/2 7/6/2 5/7/2
f 6/5/2 8/8/2 7/6/2
o Plane.002
v -10.000000 12.000000 15.000000
v -10.000000 0.000000 15.000000
v -10.000000 12.000000 -5.000000
v -10.000000 0.000000 -5.000000
vn 1.0000 -0.0000 -0.0000
vt 1.000000 0.000000
vt 0.000000 1.000000
vt 0.000000 0.000000
vt 1.000000 1.000000
s 0
usemtl Material.001
f 10/9/3 11/10/3 9/11/3
f 10/9/3 12/12/3 11/10/3
o Plane.003
v 10.000000 0.000000 15.000000
v 10.000000 12.000000 15.000000
v 10.000000 0.000000 -5.000000
v 10.000000 12.000000 -5.000000
vn -1.0000 -0.0000 -0.0000
vt 1.000000 0.000000
vt 0.000000 1.000000
vt 0.000000 0.000000
vt 1.000000 1.000000
s 0
usemtl Material.001
f 14/13/4 15/14/4 13/15/4
f 14/13/4 16/16/4 15/14/4
